<?xml version="1.0" encoding="UTF-8" standalone="no"?>
<svg
   id="Layer_1"
   data-name="Layer 1"
   width="1005"
   height="1000"
   viewBox="0 0 125.625 400"
   version="1.1"
   sodipodi:docname="logo-hf-icon.ac658dc7.svg"
   inkscape:version="1.1 (c4e8f9e, 2021-05-24)"
   xmlns:inkscape="http://www.inkscape.org/namespaces/inkscape"
   xmlns:sodipodi="http://sodipodi.sourceforge.net/DTD/sodipodi-0.dtd"
   xmlns="http://www.w3.org/2000/svg"
   xmlns:svg="http://www.w3.org/2000/svg">
  <sodipodi:namedview
     id="namedview88"
     pagecolor="#ffffff"
     bordercolor="#666666"
     borderopacity="1.0"
     inkscape:pageshadow="2"
     inkscape:pageopacity="0.0"
     inkscape:pagecheckerboard="0"
     showgrid="false"
     width="3199px"
     inkscape:zoom="0.3571875"
     inkscape:cx="694.31321"
     inkscape:cy="589.32633"
     inkscape:window-width="1312"
     inkscape:window-height="847"
     inkscape:window-x="0"
     inkscape:window-y="25"
     inkscape:window-maximized="0"
     inkscape:current-layer="Layer_1" />
  <defs
     id="defs11">
    <style
       id="style9">.cls-1{fill:#b53a25;}.cls-2{fill:#b8cdb4;}.cls-3{fill:#a88771;}.cls-4{fill:#2d3837;}.cls-5{fill:#f74700;}</style>
  </defs>
  <path
     class="cls-1"
     d="m 29.477358,73.39986 0.1,4.24 c -12.13,1.75 -25.4600002,5.29 -30.3100002,17.49 -3.87,9.27 -4.36,23.93 -4.05,35 0.34,8.37 1.45,23.07 1.77,31 l 18.4500002,-0.28 c -0.59,-20.77 -3.16,-44.1 5,-55.21 4.91,-6.67 14.17,-10.5 28.71,-12.89 0,-16.64 0.12,-35.52 0.2,-52.16 0,-1.65 -0.28,-1.93 -1.07,-2.54 l -18.73,-13.73 c -0.5,13.68 -0.52,30.92 -0.07,49.08 z"
     id="path13" />
  <path
     class="cls-1"
     d="m -34.562642,343.40986 c -3.31,4.6 -11.56,9.68 -16,13 a 58.54,58.54 0 0 1 -15.34,8 80.33,80.33 0 0 1 -16,3.74 122.93,122.93 0 0 1 -15.43,1 c -2.439998,0 -5.999998,0 -8.889998,-0.11 4.53,7 22.219998,14.31 22.219998,14.31 v 0 a 7.2,7.2 0 0 0 3.3,0.74 c 7.44,0 12.48,0.43 24.74,-2 14.41,-2.83 30.93,-10.58 39.56,-22.9 l 0.36,-0.5 c -7.43,-4.25 -12.73,-9.48 -18.52,-15.28 z"
     id="path15" />
  <path
     class="cls-1"
     d="m -3.2626422,279.91986 -1.8,-43.92 c 38.8000002,-0.24 96.4900002,-0.45 142.1200022,-0.26 0,4.86 0,7.93 0.08,12.73 0,0 -48.620002,0 -43.260002,0.15 5.360002,0.15 -51.86,-0.17 -78,0 -1.69,0.34 -1.32,1.94 -1.29,2.89 l 1,47.74 a 42,42 0 0 0 3.85,17.33 c -3,-1.29 -5.9,-1.23 -8.57,-3.57 0.01,-0.04 -13.0800002,-10.28 -14.1300002,-33.09 z"
     id="path17" />
  <path
     class="cls-1"
     d="m 49.207358,335.77986 c -0.73,-0.52 -12.34,-8.9 -17.62,-14.84 0.38,17.42 1.19,31.89 1.74,49.21 -11.35,0.28 -38.6000002,-6.81 -48.67,-8.68 a 93.61,93.61 0 0 0 68.08,25.9 c -0.48,-15 -1.07,-30.05 -1.35,-45.07 -0.07,-2.85 -0.22,-5.27 -2.18,-6.52 z"
     id="path19" />
  <path
     class="cls-1"
     d="m 262.64736,63.69986 c -0.09,-7.2 -0.68,-17.56 -0.56,-24.58 l -19.71,-15.37 c 0.08,16.15 1.67,41.19 1.05,49.48 0,0 -11.54,-0.72 -20.29,4.48 -5.89,3.5 -13.91,15.31 -15.53,24.79 -0.91,5.33 -2.76,23.38 -2.58,31.06 0.14,22.47 1.49,50.08 25.76,57.41 a 18.8,18.8 0 0 1 -1.52,-2.69 c -1.5,-13.91 -3.69,-35.37 -3.57,-49.34 0.87,-27.17 5,-45.58 36.51,-45.82 0.89,-9.8 0.11,-19.51 0.44,-29.42 z"
     id="path21" />
  <path
     class="cls-1"
     d="m 262.37736,202.95986 c -1,0.54 -18.79,-10.63 -19.62,-10.73 0.38,3.58 -0.19,8.3 -2.95,10.91 a 3.31,3.31 0 0 1 -2.25,1.33 c -15.18,2.83 -30.74,16.06 -30.55,32.41 0.1,8.23 -0.28,15.95 -0.22,24.51 0.07,11 -0.4,31.49 4.35,40.88 3.47,6.85 12.53,12.13 16.53,12.79 0.08,0 -1.68,-32.59 -0.95,-58.93 0.6,-21.42 12,-29.13 33.76,-37.93 3.26,-4.01 2.07,-10.72 1.9,-15.24 z"
     id="path23" />
  <path
     class="cls-1"
     d="m 194.83736,360.71986 c 5.74,2.68 29,7.06 37.79,4.86 3.75,-0.94 8,4.62 8.45,1.86 0.35,-16 0.25,-33.94 0.14,-49.53 0.85,0.12 15.66,12.08 17.39,13.38 0.82,1.22 2.33,2.42 2.36,3.66 -0.21,15.34 1.66,34.24 -0.33,49.46 a 4.31,4.31 0 0 1 -2.79,2.59 c -19.12,1.67 -42.27,-9.74 -55.83,-19.51 a 37.35,37.35 0 0 1 -7.18,-6.77 z"
     id="path25" />
  <path
     class="cls-1"
     d="m 182.26736,352.31986 c -2.74,-2.23 -6.3,-7.53 -9.7,-11.2 -16.81,17.63 -46.49,30.6 -71.16,28.38 l 17.57,13.6 c 24.61,4 58.1,-4.47 74.22,-24 a 78.76,78.76 0 0 1 -10.93,-6.78 z"
     id="path27" />
  <path
     class="cls-2"
     d="m 27.147358,23.73986 c 1.86,0.1 4.11,0.73 4,3.55 -0.58,16 -0.6,32.58 -0.22,48.52 a 2.12,2.12 0 0 1 -1.71,2.12 c -37.81,7.32 -32.8700002,35.11 -32.7400002,66.17 0,4.53 0.16,10.73 0.44,14.91 a 1.83,1.83 0 0 0 1.86,1.71 c 11.4100002,-0.18 78.0000002,0.16 112.8700022,-0.05 6.56,-0.14 12.73,-0.19 19.28,-0.22 2.65,0 3.62,-0.94 3.58,-3.5 -1,-33.85 6.12,-66.13 -33,-79.6 a 2.78,2.78 0 0 1 -1.87,-2.65 c 0.21,-16.71 -0.28,-33.17 -0.31,-49.87 a 2.12,2.12 0 0 1 1.89,-2.11 c 25.78,-2.79 54.05,10.44 67.86,31.53 1.87,2.85 3.45,3.2 5.52,0 11.14,-17.63 25.14,-23.93 41.77,-29.09 8.14,-2.51 17,-1.06 23.22,-1 3,0 4.13,0.66 4,3.82 -0.15,6.41 0.08,12.82 0.16,19.23 0,11.37 -0.06,21.59 -0.12,27.18 a 2.41,2.41 0 0 1 -2.25,2.36 c -28.84,1.94 -33.49,20.15 -34.59,45.7 0.17,30.21 -2.79,65.47 35.18,70.44 a 1.84,1.84 0 0 1 1.58,1.71 c 0.06,1.26 0.3,3.31 0.35,4.57 0.09,2.15 -0.34,3.32 -2.41,3.93 -4.38,1.29 -15.44,4.59 -20,8.78 -6.52,6 -13.93,16.67 -13.7,27.76 -0.42,15.44 -0.5,30.89 -0.44,46.34 0,0 2.44,28.33 31.54,32 2.4,0.3 3.2,0.82 3.22,3.7 0.1,15.35 0.54,30.32 -0.4,46.21 -0.06,1 -0.72,2.54 -2,2.74 a 35.42,35.42 0 0 1 -7.76,0.08 c -20.3,-1 -36.63,-7.71 -45.78,-14.76 -3.12,-2.4 -9.14,-8.53 -12.29,-12 a 2.55,2.55 0 0 0 -3.75,-0.07 c -19.47,20.06 -40,29.94 -69,25.69 -0.22,-16 -0.68,-31.23 -0.7,-47.38 0,-2.28 1,-3.35 2.49,-3.95 7.17,-2.79 29.32,-1.42 32.21,-30.55 0.53,-17.47 -0.18,-31.86 0,-49.37 -0.13,-0.41 -0.91,-1.19 -1.48,-0.95 -45.550002,-0.21 -98.650002,-0.08 -135.8000022,0.27 -1.51,0 -2.27,0.39 -2.26,2.16 0.07,10.09 0.91,17.69 1.12,27.79 0.62,10.46 1.37,19.75 5.61,30.05 4.14,10 12.0000002,17.38 25.6900002,20.71 2.75,0.67 4.24,2.23 4.39,5.39 0.74,15 0.89,32.08 1.36,47.1 -13.1,0.26 -26.0900002,0.13 -38.8100002,-4.52 -12.8799998,-4.7 -19.4099998,-11.59 -28.0899998,-20.28 a 3.12,3.12 0 0 0 -4.81,0.49 c -16,24.13 -44.07,24.28 -65.729998,24.08 -3.07,0 -3.41,-1.14 -3.53,-4.21 -0.64,-15.5 -0.82,-31.17 -1.12,-46.72 a 2.49,2.49 0 0 1 2.51,-2.69 c 17.559998,-0.76 31.179998,-12.67 31.409998,-26.13 0.1,-5.87 0.37,-13.61 0.36,-19.48 0,-31.2 1.73,-54.43 -34.399998,-67 -0.59,-0.21 0,-5.9 -0.18,-8.47 a 0.6,0.6 0 0 1 0.47,-0.64 c 17.439998,-3.83 30.949998,-20.14 32.819998,-37.58 -0.83,-30 6.54,-73.55 -31.819998,-80 a 4.24,4.24 0 0 1 -3.58,-3.89 c -0.52,-11.67 -0.52,-33.68 -0.34,-46.28 0.08,-5.38 1.86,-5.83 6.4,-5.91 a 134.78,134.78 0 0 1 19.739998,0.89 c 15.42,2 33.44,16.56 42.3,32.77 1.35,2.48 2.68,1.89 3.53,-0.21 8.5,-19.05 30.12,-30 49.68,-31.09 z"
     id="path29" />
  <rect
     class="cls-3"
     x="165.71736"
     y="27.799862"
     width="10.19"
     height="168.19"
     id="rect31" />
  <path
     class="cls-3"
     d="m 216.59736,68.40986 a 16.110131,16.110131 0 0 1 -0.13,-32.22 h 0.14 a 16.1,16.1 0 0 1 16.1,16 v 0 a 16.13,16.13 0 0 1 -16,16.25 z m 0,-22 h -0.06 a 5.92,5.92 0 0 0 -4.09,10.14 5.84,5.84 0 0 0 4.14,1.7 h 0.06 a 5.92,5.92 0 0 0 5.86,-6 v 0 a 5.92,5.92 0 0 0 -5.91,-5.87 z"
     id="path33" />
  <path
     class="cls-3"
     d="m 176.19736,122.04986 -10.17,-0.52 c 0.12,-2.32 3.27,-56.8 36.37,-68 l 3.26,9.65 c -13.5,4.57 -20.77,19.94 -24.48,32 a 125.72,125.72 0 0 0 -4.98,26.87 z"
     id="path35" />
  <rect
     class="cls-3"
     x="164.47569"
     y="205.41113"
     width="10.19"
     height="170.92999"
     transform="rotate(-0.12)"
     id="rect37" />
  <path
     class="cls-3"
     d="m 215.78736,357.38986 h -0.15 a 16.110152,16.110152 0 0 1 0.14,-32.22 h 0.14 a 16.14,16.14 0 0 1 16,16.25 v 0 a 16.11,16.11 0 0 1 -16.1,16 z m 0,-22 a 5.92,5.92 0 0 0 -4.22,10.07 5.86,5.86 0 0 0 4.17,1.77 5.67,5.67 0 0 0 4.2,-1.7 5.86,5.86 0 0 0 1.8,-4.21 v 0 a 5.93,5.93 0 0 0 -5.87,-6 z"
     id="path39" />
  <path
     class="cls-3"
     d="m 170.46736,399.18986 h -0.15 a 16.110152,16.110152 0 0 1 0.14,-32.22 h 0.14 a 16.12,16.12 0 0 1 16,16.24 v 0 a 16.13,16.13 0 0 1 -16.1,16 z m 0,-22 a 5.9200528,5.9200528 0 0 0 -0.05,11.84 5.7,5.7 0 0 0 4.2,-1.7 5.9,5.9 0 0 0 1.77,-4.17 v 0 a 5.92,5.92 0 0 0 -5.87,-6 z"
     id="path41" />
  <path
     class="cls-3"
     d="m 170.46736,33.66986 h -0.15 a 16.1,16.1 0 0 1 -16,-16.24 16.14,16.14 0 0 1 16.11,-16 h 0.14 a 16.14,16.14 0 0 1 16,16.25 v 0 a 16.11,16.11 0 0 1 -16.1,16 z m 0,-22 a 5.92,5.92 0 0 0 -4.22,10.07 5.86,5.86 0 0 0 4.17,1.77 5.65,5.65 0 0 0 4.2,-1.69 5.91,5.91 0 0 0 1.77,-4.18 v 0 a 5.93,5.93 0 0 0 -5.87,-6 z"
     id="path43" />
  <path
     class="cls-3"
     d="m 201.97736,341.48986 c -33.05,-11.18 -36.93,-64.46 -37.08,-66.72 l 10.17,-0.67 c 0,0.48 3.57,48.74 30.17,57.74 z"
     id="path45" />
  <path
     class="cls-3"
     d="m 46.547358,284.93986 h -0.14 a 16.110131,16.110131 0 0 1 0.13,-32.22 h 0.14 a 16.14,16.14 0 0 1 16,16.25 v 0 a 16.11,16.11 0 0 1 -16.1,16 z m 0,-22 a 5.91,5.91 0 0 0 -5.91,5.87 5.91,5.91 0 0 0 5.86,6 5.7,5.7 0 0 0 4.2,-1.7 5.86,5.86 0 0 0 1.77,-4.17 v 0 a 5.93,5.93 0 0 0 -5.87,-6 z"
     id="path47" />
  <path
     class="cls-3"
     d="m 46.547358,214.66986 h -0.14 a 16.1,16.1 0 0 1 -16,-16.24 16.12,16.12 0 0 1 16.1,-16 h 0.14 a 16.12,16.12 0 0 1 16,16.24 v 0 a 16.11,16.11 0 0 1 -16.1,16 z m 0,-22 a 5.92,5.92 0 0 0 -5.91,5.87 5.85,5.85 0 0 0 1.69,4.21 5.94,5.94 0 0 0 4.17,1.77 5.66,5.66 0 0 0 4.2,-1.7 5.86,5.86 0 0 0 1.77,-4.17 v 0 a 5.93,5.93 0 0 0 -5.87,-6 z"
     id="path49" />
  <rect
     class="cls-3"
     x="58.017353"
     y="192.85985"
     width="109.01"
     height="10.19"
     id="rect51" />
  <path
     class="cls-3"
     d="m 59.277358,274.36986 a 35.21,35.21 0 0 1 -6.38,-0.58 l 1.85,-10 c 12,2.21 25.06,-4.6 33.23,-17.37 3.36,-5.23 5.94,-11.27 8.67,-17.67 2.13,-5 4.320002,-10.1 6.930002,-14.89 8.14,-14.91 19.36,-22.29 30,-19.75 l -2.36,9.91 c -7,-1.66 -14.46,6.89 -18.73,14.72 -2.38,4.36 -4.39,9 -6.51,14 -2.78,6.5 -5.65,13.22 -9.460002,19.17 -9.01,14.12 -23.13,22.46 -37.24,22.46 z"
     id="path53" />
  <path
     class="cls-1"
     d="m 162.95736,153.58986 3.76,2.45 c 1.18,5.38 2.32,11 3.13,15.51 a 37.12,37.12 0 0 1 4.24,-0.28 l -2,-2.78 c -0.35,-2.69 -0.95,-4.71 -2.2,-12 a 14.35,14.35 0 0 1 -0.15,-3.17 c 0.38,-6.9 0.74,-13.81 1.22,-20.71 0.61,-8.81 1.46,-17.6 2,-26.41 a 26.21,26.21 0 0 0 -3,-14.18 c -1.52,-2.79 -3.27,-5.63 -7,-5.4 -3.73,0.23 -5.17,3.21 -6.49,6.14 -0.55,1.22 -1.2,2.4 -1.81,3.59 l -1.09,-0.13 c -0.43,-2.78 -1.75,-20 -2.55,-25.81 -1.38,-10 -3.35,-19.81 -12.77,-26 0,0 -6.6,-3.21 -9.1,1.45 -0.82,1.54 -2.23,3 -2.5,4.66 a 85.3,85.3 0 0 0 -0.58,9.6 c 0,0.74 0,1.48 -0.05,2.21 l -0.73,0.13 c -1.1,-3 -2.25,-6 -3.28,-9 a 31.34,31.34 0 0 0 -8.27,-12.86 26.51,26.51 0 0 0 -9.08,-5.68 c -6.820002,-2.36 -12.890002,2.62 -12.450002,9.67 0,0.68 0.13,1.35 0.31,3.15 a 22.73,22.73 0 0 0 -3.27,-2.18 65.55,65.55 0 0 0 -8.51,-3.24 c -6.49,-1.7 -12.07,3.18 -10.81,9.55 a 14,14 0 0 0 3.2,6.23 c 2.28,2.59 5.13,4.7 7.74,7 0.64,0.57 1.27,1.16 2.09,1.91 a 46.77,46.77 0 0 0 -6,1.75 c -4.92,2.2 -5.87,7.62 -1.86,11.09 a 15.61,15.61 0 0 0 5.66,3.11 c 4.19,1.22 8.5,2.08 12.79,2.94 5.5,1.09 11.000002,1.91 16.530002,3.1 2.13,0.46 4.51,1 5.69,3.49 -2.4,1.57 -4.82,0.59 -7.18,0.62 a 84.72,84.72 0 0 0 -11.280002,0.49 c -3.24,0.48 -6,2.22 -6.82,5.72 -0.63,2.88 1.35,5.92 4.73,7.75 a 7.49,7.49 0 0 0 1.33,0.59 c 5.570002,1.69 11.090002,3.56 16.730002,5 5.64,1.44 11.23,2.26 16.83,3.48 2.45,0.54 4.87,1.34 6.41,3.84 a 11.34,11.34 0 0 1 -4,0.31 c -2.9,-0.3 -5.8,-1 -8.7,-1 -4.73,0.07 -7.07,4.25 -4.44,8 a 13.63,13.63 0 0 0 5.18,4.26 90.86,90.86 0 0 0 12.25,4.66 c 10.59,3.21 19.4,8.79 26.15,17.38 z"
     id="path55" />
  <path
     class="cls-4"
     d="m 161.42736,145.31986 a 12.67,12.67 0 0 1 -1.36,-3.45 1.16,1.16 0 0 0 -0.13,-0.27 37.05,37.05 0 0 1 -3.39,-2.55 23.31,23.31 0 0 0 -5.33,-3.59 120.12,120.12 0 0 0 -14.54,-5.32 l -0.23,-0.06 a 1.93,1.93 0 0 1 -1.4,-0.84 2.14,2.14 0 0 1 0,-1.8 0.81,0.81 0 0 1 1,-0.51 l 2.29,0.61 c 5.73,1.51 11.6,3.07 16.79,6.5 0.75,0.42 1.53,0.87 2.35,1.37 -2.42,-5.19 -4.85,-10 -7.38,-14.61 a 15.12,15.12 0 0 0 -4.58,-4.93 36.36,36.36 0 0 0 -14.38,-6.55 c -6.93,-1.34 -13.85,-2.72 -20.55,-4 -0.27,-0.06 -0.54,-0.1 -0.82,-0.14 a 5.9,5.9 0 0 1 -3.17,-1.16 1,1 0 0 1 -0.23,-0.12 0.76,0.76 0 0 1 -0.2,-0.91 0.86,0.86 0 0 1 0.45,-0.43 v 0 l -0.56,-0.16 0.72,0.08 a 4,4 0 0 1 2.63,-0.13 h 0.19 c 1.36,0.26 2.73,0.5 4.1,0.74 2.1,0.37 4.27,0.75 6.4,1.2 1.53,0.32 3.1,0.62 4.61,0.91 6.54,1.23 13.27,2.5 19.41,6.34 l -2.3,-3.06 c -5.08,-6.73 -10.33,-13.7 -16.08,-20.08 a 23.72,23.72 0 0 0 -7.92,-5.7 c -6.61,-3 -14.15,-4.69 -23.750002,-5.21 h -0.61 a 32.83,32.83 0 0 1 -10.25,-1.73 0.78,0.78 0 0 1 -0.51,-0.8 0.81,0.81 0 0 1 0.67,-0.69 18.35,18.35 0 0 1 5.66,0.12 19,19 0 0 0 2.74,0.24 78.76,78.76 0 0 1 11.130002,0.76 72,72 0 0 1 14.37,3.83 l -0.09,-0.08 -0.18,-0.17 a 188.08,188.08 0 0 0 -26.780002,-21.23 c -0.54,-0.35 -1.12,-0.66 -1.72,-1 a 11.2,11.2 0 0 1 -4.46,-3.56 0.61,0.61 0 0 1 -0.2,-0.19 0.73,0.73 0 0 1 -0.09,-0.74 v -0.09 a 0.82,0.82 0 0 1 1.12,-0.39 4.23,4.23 0 0 1 2.11,0.89 l 0.31,0.2 a 212.7,212.7 0 0 1 23.190002,16.32 c 3.73,3.09 7.28,6.44 11.23,10.34 -0.19,-0.5 -0.38,-1 -0.56,-1.49 -1.25,-3.33 -2.42,-6.47 -3.63,-9.55 a 61.43,61.43 0 0 0 -4,-7.84 c -0.9,-1.59 -1.84,-3.24 -2.67,-4.92 a 67.78,67.78 0 0 0 -4.9,-8.05 c -0.68,-1 -1.38,-2 -2.1,-3.16 a 0.75,0.75 0 0 1 0.08,-0.93 0.79,0.79 0 0 1 0.5,-0.24 l -0.27,-0.33 0.41,0.32 a 0.73,0.73 0 0 1 0.29,0.07 9.66,9.66 0 0 1 4.65,3.92 c 0.85,1.23 1.65,2.47 2.43,3.73 l 0.36,0.61 a 83.2,83.2 0 0 1 5.44,10.76 c 0.19,0.46 0.37,0.92 0.55,1.38 q 1.18,2.55 2.27,5.14 c 0.1,0.18 0.19,0.36 0.3,0.53 a 14.72,14.72 0 0 1 1.26,2.93 8.25,8.25 0 0 0 2.08,3.79 0.78,0.78 0 0 1 0.25,0.49 16.22,16.22 0 0 0 0.48,2.46 c 1.23,2.67 2.56,5.3 4,7.84 0.82,1.13 1.7,2.24 2.59,3.37 0.59,0.75 1.18,1.5 1.75,2.25 2,2.68 4.24,5.33 6.37,7.88 l 2.1,2.53 a 3.31,3.31 0 0 1 0.44,0.76 2.37,2.37 0 0 0 0.19,0.39 6.41,6.41 0 0 0 -0.39,-1.82 9.59,9.59 0 0 1 -0.41,-1.72 113.42,113.42 0 0 1 -0.27,-15.3 v -1.9 c 0.21,-10.41 -1.32,-19.36 -4.67,-27.36 l -0.12,-0.24 a 1.86,1.86 0 0 1 0,-2.13 0.8,0.8 0 0 1 0.75,-0.31 3,3 0 0 1 2.36,2.26 c 2.62,6.63 5,13.19 4.9,20.44 0,1.62 0,3.24 0,4.87 -0.06,5.46 -0.12,11.1 0,16.64 a 28.27,28.27 0 0 0 4.68,15.78 55.41,55.41 0 0 1 5.54,9.95 3.59,3.59 0 0 0 0.66,1 c 0.22,0.23 0.35,0.25 0.43,0.23 a 1.9,1.9 0 0 0 0,-0.25 34.23,34.23 0 0 1 1.87,-9 96.78,96.78 0 0 0 3.63,-14.53 c 0,-0.15 0.05,-0.31 0.07,-0.47 a 4,4 0 0 1 1.34,-2.91 0.79,0.79 0 0 1 1.09,0.07 3.41,3.41 0 0 1 0.67,3.35 c 0,0.3 -0.1,0.58 -0.12,0.85 a 52.82,52.82 0 0 1 -2.75,12.81 c -3.09,8.08 -3.1,15.62 0,23 0.22,0.54 0.46,1.12 0.71,1.71 -0.01,0.04 5.2,14.01 -0.91,6.14 z"
     id="path57" />
  <path
     class="cls-5"
     d="m 174.53736,158.03986 a 5.14,5.14 0 0 0 1,0.73 c 4.69,2.18 6.62,6.75 4.67,11.56 -1.5,3.72 -3,7.45 -4.19,11.27 -0.89,2.81 -2.63,5.33 -2.81,8.36 l -0.39,0.5 c 0.57,0.17 0.25,-0.34 0.38,-0.5 0.33,0 0.73,-0.06 0.85,-0.41 1.09,-3.14 3.23,-5.67 4.86,-8.5 1.8,-3.13 3.77,-6.16 5.64,-9.25 a 8.63,8.63 0 0 1 5.62,-4.08 8.91,8.91 0 0 1 10.22,5 c 1.74,4.21 0.32,9.34 -3.55,11.19 -6.14,2.92 -12.12,6.21 -18.63,8.31 -0.9,0.29 -1.25,0.84 -1.42,2 6.1,-1.83 12.06,-2.9 17.9,-4.44 3.18,-0.83 6.37,-1.6 9.56,-0.09 4.17,2 6,7.43 4,11.85 -1.78,3.94 -7.56,6.15 -11.61,4.38 -5.65,-2.47 -11.53,-4.28 -17.28,-6.49 -0.45,-0.17 -0.89,-0.48 -1.34,0 -0.08,0.67 0.53,0.77 0.91,1 5.15,3.21 10.27,6.45 15.47,9.57 5.75,3.45 6.36,11 0.94,14.91 a 8.54,8.54 0 0 1 -12.83,-3 c -1.7,-3.46 -3.32,-7 -4.92,-10.48 -1.21,-2.66 -2.11,-5.58 -4,-8 -0.67,0.68 -0.36,1.3 -0.21,1.93 1.38,5.92 2.8,11.82 4.1,17.75 0.87,4 -0.17,7.27 -3.61,9.72 -2.81,2 -6.75,2 -10.18,-0.18 -2.45,-1.56 -3.83,-5.08 -3.39,-8.15 0.57,-3.88 2.45,-7.3 3.65,-11 1,-3.22 2.19,-6.4 3.33,-9.71 a 1.36,1.36 0 0 0 -1.34,0.69 c -2.66,4.43 -5.22,8.92 -8,13.3 -1.86,3 -3.62,6.07 -7.7,6.64 a 8.89,8.89 0 0 1 -7.38,-15.46 c 1.63,-1.42 3.69,-2.06 5.61,-2.92 5.32,-2.41 10.66,-4.79 15.83,-7.63 -0.54,-0.7 -1,-0.42 -1.47,-0.3 -6.68,1.69 -13.36,3.37 -20.08,4.88 a 8.83,8.83 0 0 1 -10.78,-10.23 c 1,-5.19 6.52,-8.53 11.1,-6.8 5.89,2.23 11.85,4.27 17.8,6.3 0.93,0.32 1.6,1.58 3.1,0.79 -5.17,-3.56 -10.43,-6.72 -15.76,-9.72 -4.21,-2.37 -6.88,-6.07 -6.49,-10.14 0.3,-3.13 3.71,-7 6.62,-7.58 4.16,-0.78 8.52,1 10.13,4.4 2.83,5.93 5.53,11.92 8.31,17.88 0.31,0.66 0.38,1.53 1.52,2 -1.51,-6.57 -3,-12.85 -4.4,-19.15 -1.85,-8.36 0.13,-9.62 5.08,-12.77 a 14,14 0 0 1 5.56,0.07 z m -9.61,37.33 a 5.2,5.2 0 0 0 5,5.79 5.6,5.6 0 0 0 5.36,-5.11 5.3,5.3 0 0 0 -5.06,-5.3 4.89,4.89 0 0 0 -5.3,4.62 z"
     id="path59" />
  <path
     class="cls-4"
     d="m 170.59736,189.61986 a 6.78,6.78 0 0 0 -7.37,6.4 7.23,7.23 0 0 0 7,8 c 3.63,0.1 7.22,-3.33 7.42,-7.09 a 7.35,7.35 0 0 0 -7.05,-7.31 z"
     id="path61" />
  <path
     class="cls-1"
     d="m -37.392642,257.78986 c -0.08,0.48 0.47,-3.54 0.8,-5.17 -1.16,-3.48 -0.82,-7 -0.52,-10.58 0.2,-2.38 -0.87,-2.67 -2.71,-1.57 a 0.23,0.23 0 0 0 0.06,0.37 9.07,9.07 0 0 0 -0.07,3.74 1.26,1.26 0 0 0 0,1.37 c -0.55,4.1 -1.12,8.19 -1.68,12.29 v 0 c -1,3.31 -2.18,6.54 -3.43,9.75 l 0.12,0.05 a 63.7,63.7 0 0 0 -2.44,6.78 l -2.25,1 0.24,-0.46 c -0.23,-0.32 -1.09,0.08 -1.44,-0.12 -2.55,1.61 -5.86,0.43 -8.67,0.34 a 7.61,7.61 0 0 0 -8.25,7.2 c -0.08,0.87 0.38,2 -0.58,2.51 -0.96,0.51 -1.88,-0.51 -2.64,-1.09 -5,-4.74 -16.57,-9.87 -19,-0.25 v 0 c -1.27,4.48 3.28,7.32 5.65,10.41 3.29,8.85 -12.79,-5.85 -14.699998,-6.53 v 0 c -8.59,-7.37 -24.67,-3.57 -19.6,9.92 0.94,6.11 12.56,11.53 10.49,16.22 -3.11,2.64 -13.88,-4 -19.17,-2.16 -5.38,0.98 -7.61,5.51 -5.08,10.29 7.16,9.09 2.9,8.47 -3.47,15.41 -3.43,3.34 -0.66,9.59 4,9.87 6.28,1.56 15.35,-6.25 19.81,0.14 2.76,4.57 7.66,10 12.69,7.47 4.339998,-1.61 6.179998,-4.64 5.999998,-9.83 v 0 c 0.17,-0.69 -0.22,-1.91 0.48,-2.09 4.82,-1.27 6.64,4.49 9.94,8.28 3.36,3.94 10.38,2.85 13.56,-1.19 a 1.22,1.22 0 0 1 -0.27,0 1.22,1.22 0 0 0 0.27,0 c 2.81,-3.37 3.48,-8.15 3.1,-12.53 -1.89,-7 -3,-18.53 6.72,-16.06 l 3.31,1.36 c 4.17,3.68 11.66,2.83 12.4,-4.76 l 0.19,-0.05 c -0.37,-6 -3.6,-12.37 -8.85,-15.7 -1.14,-0.52 -2.24,-1.21 -2.1,-2.6 1,-3.7 3.2,-3.12 4.29,-4.21 6.62,-6.62 4.12,-11.85 5.24,-18.88 h -0.07 c 0,0 4.08,-9.94 5.68,-15.23 z m -56,87.31 -0.24,-0.09 v 0 z"
     id="path63" />
  <path
     class="cls-4"
     d="m -51.962642,284.52986 a 2.13,2.13 0 0 0 -0.81,2.17 42.36,42.36 0 0 0 -7.89,9.37 c -1.5,0.78 -2.41,2.22 -3.72,3.29 a 1.94,1.94 0 0 0 -0.61,1.26 12.67,12.67 0 0 0 5,11.52 c 2.87,1.45 3.81,2.27 3.51,2.6 -0.27,0.62 -1.24,0.34 -1.78,0.14 -5.07,-0.76 -8.8,-7.05 -9,-12.75 -13.06,11 -15.64,22.34 -7.15,36.87 0.22,1.61 -1.08,2 -2.23,0.1 -5.62,-8.61 -6.62,-18.78 -1.83,-26.88 a 57.69,57.69 0 0 0 -15.79,14.26 c -5.359998,6.87 -3.29,11.63 -4.859998,18.63 l 0.41,0.74 -1.46,-0.53 0.17,-0.27 c -2.51,-6.09 0,-13.33 3.159998,-19.34 a 204.57,204.57 0 0 1 -18.419998,9.68 c -2.52,0.61 -9,6 -10.76,3.63 10.47,-6.35 23.15,-11.52 31.499998,-17.59 -7.609998,2.27 -15.509998,0.51 -22.899998,-0.94 -2,-0.33 -4.17,0 -6,-1.35 3.8,-2.85 9.4,-0.24 13.65,0.14 15.589998,3.46 23.449998,-3.59 34.339998,-13.14 -14.12,8.11 -26.219998,-5.59 -36.469998,-13.48 -0.54,-0.25 -1.27,-0.82 -0.65,-1.77 5.17,1 9,5.95 13.06,9 9.539998,8.57 22.789998,7.64 31.459998,0 0.19,-1.58 2,-0.95 2.28,-1.95 0.16,-0.52 1,-1.61 -0.16,-1.32 -8.34,1 -13.5,-5.1 -17.67,-12.72 a 0.52,0.52 0 0 1 0.81,-0.64 c 2.91,2.51 5,5.73 8,8.17 9.34,7.51 17.23,-3.63 20.48,-7.78 -0.38,0.52 2.33,0.88 2.33,0.88 z"
     id="path65" />
  <rect
     class="cls-3"
     x="-41.832645"
     y="95.269859"
     width="10.19"
     height="80.370003"
     id="rect67" />
  <path
     class="cls-3"
     d="m 8.7373578,69.64986 a 16.110152,16.110152 0 0 1 -0.14,-32.22 h 0.14 a 16.11,16.11 0 0 1 16.1000002,16 v 0 a 16.14,16.14 0 0 1 -16.0000002,16.25 z m 0,-22 h -0.05 a 5.92,5.92 0 0 0 0.05,11.81 v 0 a 5.93,5.93 0 0 0 5.8700002,-6 5.91,5.91 0 0 0 -5.8700002,-5.84 z"
     id="path69" />
  <path
     class="cls-3"
     d="m -31.692642,123.31986 -10.18,-0.53 c 0.12,-2.31 3.28,-56.8 36.3699998,-68 l 3.24,9.63 c -13.5099998,4.57 -20.7699998,19.93 -24.4899998,32 a 126.05,126.05 0 0 0 -4.94,26.9 z"
     id="path71" />
  <path
     class="cls-3"
     d="m -79.512642,69.64986 h -0.14 a 16.13,16.13 0 0 1 -16,-16.25 h 5.09 -5.09 a 16.1,16.1 0 0 1 16.1,-16 h 0.14 a 16.1,16.1 0 0 1 11.15,27.62 16,16 0 0 1 -11.25,4.63 z m 0,-22 a 5.9200528,5.9200528 0 0 0 -0.05,11.84 h 0.05 a 5.92,5.92 0 0 0 0,-11.84 z"
     id="path73" />
  <path
     class="cls-3"
     d="m -41.832642,125.43986 a 128,128 0 0 0 -4.43,-27.41 c -3.48,-12.31 -10.45,-27.93 -23.89,-32.48 l 3.26,-9.65 c 33.18,11.22 35.18,66.88 35.24,69.24 l -10.18,0.3 5.09,-0.15 z"
     id="path75" />
  <rect
     class="cls-3"
     x="-44.004707"
     y="219.62181"
     width="10.19"
     height="65.660004"
     transform="rotate(-0.26)"
     id="rect77" />
  <path
     class="cls-3"
     d="m 7.8873578,358.62986 h -0.15 a 16.110152,16.110152 0 0 1 0.14,-32.22 h 0.14 a 16.110152,16.110152 0 0 1 -0.14,32.22 z m 0,-22 a 5.92,5.92 0 0 0 -4.22,10.07 5.86,5.86 0 0 0 4.17,1.77 5.71,5.71 0 0 0 4.2000002,-1.7 5.94,5.94 0 0 0 1.77,-4.17 h 5.09 -5.09 a 5.94,5.94 0 0 0 -5.8700002,-6 z"
     id="path79" />
  <path
     class="cls-3"
     d="m -5.9226422,342.72986 c -32.9999998,-11.18 -36.9199998,-64.46 -37.0699998,-66.72 l 10.16,-0.67 -5.08,0.33 5.08,-0.33 c 0,0.48 3.58,48.74 30.1799998,57.74 z"
     id="path81" />
  <path
     class="cls-5"
     d="m -33.022642,158.03986 a 5.14,5.14 0 0 0 1,0.73 c 4.69,2.18 6.62,6.75 4.68,11.56 -1.51,3.72 -3,7.45 -4.2,11.27 -0.88,2.81 -2.62,5.33 -2.8,8.36 l -0.39,0.5 c 0.57,0.17 0.25,-0.34 0.38,-0.5 0.33,0 0.72,-0.06 0.85,-0.41 1.08,-3.14 3.23,-5.67 4.85,-8.5 1.8,-3.13 3.78,-6.16 5.65,-9.25 a 8.59,8.59 0 0 1 5.61,-4.08 8.9,8.9 0 0 1 10.2199998,5 c 1.74,4.21 0.33,9.34 -3.5399998,11.19 -6.14,2.92 -12.13,6.21 -18.64,8.31 -0.9,0.29 -1.24,0.84 -1.41,2 6.09,-1.83 12,-2.9 17.9,-4.44 3.18,-0.83 6.3599998,-1.6 9.5499998,-0.09 4.18,2 6,7.43 4,11.85 -1.78,3.94 -7.56,6.15 -11.6099998,4.38 -5.65,-2.47 -11.54,-4.28 -17.28,-6.49 -0.45,-0.17 -0.89,-0.48 -1.35,0 -0.07,0.67 0.53,0.77 0.91,1 5.15,3.21 10.28,6.45 15.48,9.57 5.7399998,3.45 6.3599998,11 0.94,14.91 a 8.55,8.55 0 0 1 -12.84,-3 q -2.54,-5.19 -4.91,-10.48 c -1.21,-2.66 -2.12,-5.58 -4,-8 -0.68,0.68 -0.36,1.3 -0.22,1.93 1.38,5.92 2.81,11.82 4.11,17.75 0.86,4 -0.18,7.27 -3.62,9.72 -2.8,2 -6.75,2 -10.17,-0.18 -2.46,-1.56 -3.83,-5.08 -3.39,-8.15 0.56,-3.88 2.45,-7.3 3.64,-11 1,-3.22 2.19,-6.4 3.34,-9.71 a 1.35,1.35 0 0 0 -1.34,0.69 c -2.66,4.43 -5.22,8.92 -8,13.3 -1.86,3 -3.62,6.07 -7.7,6.64 a 8.89,8.89 0 0 1 -7.39,-15.46 c 1.64,-1.42 3.69,-2.06 5.61,-2.92 5.33,-2.41 10.67,-4.79 15.83,-7.63 -0.53,-0.7 -1,-0.42 -1.46,-0.3 -6.68,1.69 -13.36,3.37 -20.09,4.88 a 8.82,8.82 0 0 1 -10.77,-10.23 c 1,-5.19 6.51,-8.53 11.1,-6.8 5.89,2.23 11.84,4.27 17.8,6.3 0.93,0.32 1.59,1.58 3.1,0.79 -5.18,-3.56 -10.44,-6.72 -15.76,-9.72 -4.24,-2.23 -6.91,-5.93 -6.51,-10.01 0.29,-3.13 3.7,-7 6.62,-7.58 4.16,-0.78 8.51,1 10.13,4.4 2.83,5.93 5.53,11.92 8.31,17.88 0.3,0.66 0.38,1.53 1.51,2 -1.51,-6.57 -3,-12.85 -4.4,-19.15 -1.84,-8.36 0.14,-9.62 5.09,-12.77 a 14,14 0 0 1 5.58,-0.06 z m -9.6,37.33 a 5.2,5.2 0 0 0 5,5.79 5.59,5.59 0 0 0 5.35,-5.11 5.3,5.3 0 0 0 -5.06,-5.3 4.87,4.87 0 0 0 -5.29,4.62 z"
     id="path83" />
  <path
     class="cls-4"
     d="m -36.962642,189.61986 a 6.78,6.78 0 0 0 -7.36,6.4 7.23,7.23 0 0 0 7,8 c 3.64,0.1 7.23,-3.33 7.43,-7.09 a 7.36,7.36 0 0 0 -7.07,-7.31 z"
     id="path85" />
</svg>
